<?xml version="1.0" encoding="utf-8"?>
<!-- Generator: Adobe Illustrator 22.0.0, SVG Export Plug-In . SVG Version: 6.00 Build 0)  -->
<svg version="1.1" id="Layer_1" xmlns="http://www.w3.org/2000/svg" xmlns:xlink="http://www.w3.org/1999/xlink" x="0px" y="0px"
	 viewBox="0 0 2173.6 343.3" style="enable-background:new 0 0 2173.6 343.3;" xml:space="preserve">
<style type="text/css">
	.st0{fill:#121312;}
	.st1{fill:#EC1C24;}
	.st2{fill:#6D6E6E;}
	.st3{fill:#2A2B2A;}
	.st4{fill:#121112;}
</style>
<g>
	<path class="st0" d="M432.1,86.7l106.8,0c6.1,0,12,1.4,17.5,4c5.6,2.7,10.4,6.4,14.6,11.3c4.2,4.8,7.5,10.5,10,17.1
		c2.5,6.6,3.8,13.7,3.8,21.3c0,6.9-1.2,13.4-3.6,19.6c-2.4,6.2-5.7,11.7-9.7,16.4c-4.1,4.7-8.9,8.5-14.5,11.4
		c-5.6,2.9-11.4,4.3-17.5,4.3l-32.8,0l0-28.4l29.8,0c3,0,5.6-0.7,7.8-2.2c2.2-1.5,4.1-3.4,5.6-5.7c1.5-2.3,2.5-4.9,3.2-7.7
		c0.6-2.8,1-5.5,1-8.1c0-2.8-0.4-5.6-1.3-8.5c-0.8-2.9-2-5.6-3.6-8.1c-1.6-2.5-3.5-4.5-5.8-6.1c-2.3-1.6-4.9-2.4-7.7-2.4l-73.7,0
		l0,145.2l-29.8,0L432.1,86.7z"/>
	<path class="st0" d="M614.6,86.7l29.8,0l0,173.6l-29.8,0L614.6,86.7z"/>
	<path class="st0" d="M681.6,139.5c4.6-10.7,10.9-19.9,18.8-27.8c7.9-7.9,17.2-14.1,28-18.8c10.8-4.6,22.3-6.9,34.5-6.9
		c8.9,0,17.4,1.4,25.6,4.2c8.2,2.8,15.8,6.6,22.9,11.5c7.1,4.9,13.5,10.8,19.2,17.7c5.7,6.9,10.3,14.5,14,22.8l-24.2,16.1
		c-2.8-6.1-6.2-11.8-10.3-17c-4.1-5.2-8.6-9.7-13.6-13.6c-5-3.9-10.3-6.9-16-9c-5.7-2.1-11.5-3.2-17.4-3.2c-8.2,0-15.8,1.6-23,4.7
		c-7.1,3.2-13.4,7.4-18.6,12.8c-5.3,5.4-9.5,11.6-12.7,18.6c-3.2,7.1-4.7,14.5-4.7,22.3c0,7.8,1.6,15.2,4.7,22.3
		c3.2,7.1,7.4,13.2,12.7,18.5c5.3,5.3,11.5,9.5,18.6,12.5c7.1,3.1,14.7,4.6,22.7,4.6c5.4,0,10.7-0.9,16-2.8
		c5.3-1.8,10.4-4.5,15.3-7.8c4.9-3.3,9.4-7.3,13.5-11.8c4.1-4.5,7.7-9.6,10.9-15.2l21.7,21.7c-8.9,13.9-19.9,24.9-33.1,33.1
		c-13.2,8.2-27.9,12.2-44.2,12.2c-12.2,0-23.7-2.3-34.5-7c-10.8-4.6-20.1-10.9-28-18.8c-7.9-7.9-14.1-17.2-18.8-27.8
		c-4.6-10.7-7-22-6.9-34.1C674.6,161.5,676.9,150.1,681.6,139.5z"/>
	<path class="st0" d="M1024.1,86.8l0,28.4l-59.8,0l0,145.2l-30,0l0-145.2l-59,0l0-28.4L1024.1,86.8z"/>
	<path class="st0" d="M1088,86.8l0,94.6c0.7,7.1,2.9,13.6,6.4,19.8c3.5,6.1,7.9,11.5,13.2,16c5.3,4.5,11.3,8.1,17.9,10.7
		c6.7,2.6,13.6,3.9,20.9,3.9c7.2,0,14.2-1.3,20.9-3.9c6.7-2.6,12.6-6.2,17.8-10.7c5.2-4.5,9.5-9.9,12.8-16
		c3.3-6.1,5.5-12.7,6.4-19.8l0-94.6l30.3,0l0,87.4c0,12.1-2.3,23.4-7,33.9c-4.6,10.6-10.9,19.8-18.8,27.7
		c-7.9,7.9-17.2,14.1-28,18.6c-10.8,4.5-22.3,6.8-34.5,6.8c-12.2,0-23.7-2.3-34.5-6.8c-10.8-4.5-20.1-10.8-28.1-18.6
		c-8-7.9-14.3-17.1-18.9-27.7c-4.6-10.6-7-21.9-7-33.9l0-87.4L1088,86.8z"/>
	<path class="st0" d="M1318.1,188c-7.1,0-13.6-1.2-19.8-3.9c-6.1-2.7-11.5-6.4-16.1-11c-4.6-4.6-8.3-10-11-16.1
		c-2.7-6.1-4-12.6-4-19.5c0-7.6,1.2-14.5,3.6-20.7c2.4-6.2,5.7-11.5,9.7-16c4.1-4.5,8.9-7.9,14.3-10.3c5.5-2.4,11.4-3.6,17.7-3.6
		l104.6,0l0,28.4l-97.9,0c-7.4,0-12.9,2.1-16.4,6.4c-3.5,4.3-5.3,9.6-5.3,15.9c0,5.7,1.6,10.5,4.9,14.3c3.2,3.8,8.5,6.2,15.7,7.7
		l50.6,0c6.9,0,13.4,1.1,19.6,3.8c6.2,2.7,11.6,6.4,16.3,11c4.6,4.6,8.3,10,11.1,16.1c2.8,6.1,4.2,12.6,4.2,19.5
		c0,7.6-1.2,14.5-3.6,20.7s-5.7,11.5-9.9,16c-4.2,4.5-9,7.9-14.6,10.3c-5.6,2.4-11.4,3.6-17.5,3.6l-104.3,0l0-28.4l97.4,0
		c7.6,0,13.2-2.1,16.7-6.3c3.5-4.2,5.3-9.5,5.3-16c0-5.6-1.6-10.2-4.9-14c-3.2-3.8-8.5-6.3-15.7-7.8L1318.1,188z"/>
	<path class="st0" d="M1455.8,139.6c4.6-10.7,10.9-19.9,18.8-27.8c7.9-7.9,17.2-14.1,28-18.8c10.8-4.6,22.3-6.9,34.5-6.9
		c8.9,0,17.4,1.4,25.6,4.2c8.2,2.8,15.8,6.6,22.9,11.5c7.1,4.9,13.5,10.8,19.2,17.7c5.7,6.9,10.3,14.5,14,22.8l-24.2,16.1
		c-2.8-6.1-6.2-11.8-10.3-17c-4.1-5.2-8.6-9.7-13.6-13.6c-5-3.9-10.3-6.9-16-9c-5.7-2.1-11.5-3.2-17.4-3.2c-8.2,0-15.8,1.6-22.9,4.7
		c-7.1,3.2-13.4,7.4-18.6,12.8c-5.3,5.4-9.5,11.6-12.7,18.6c-3.2,7.1-4.7,14.5-4.7,22.3c0,7.8,1.6,15.2,4.7,22.3
		c3.2,7.1,7.4,13.2,12.7,18.5c5.3,5.3,11.5,9.5,18.6,12.5c7.1,3.1,14.7,4.6,22.7,4.6c5.4,0,10.7-0.9,16-2.8
		c5.3-1.8,10.4-4.5,15.3-7.8c4.9-3.3,9.4-7.3,13.5-11.8c4.1-4.5,7.7-9.6,10.9-15.2l21.7,21.7c-8.9,13.9-19.9,24.9-33.1,33.1
		c-13.2,8.2-27.9,12.2-44.2,12.2c-12.2,0-23.7-2.3-34.5-7c-10.8-4.6-20.1-10.9-28-18.8c-7.9-7.9-14.1-17.2-18.8-27.8
		c-4.6-10.7-7-22-6.9-34.1C1448.8,161.6,1451.2,150.3,1455.8,139.6z"/>
	<path class="st0" d="M1679.6,190.8c1.9,5.5,4.7,10.7,8.2,15.7c3.5,5,7.7,9.6,12.7,13.6c4.9,4.1,10.4,7.5,16.6,10.3l-18.9,23.9
		c-7.8-4.1-14.8-9-21.1-14.8c-6.3-5.7-11.7-12.1-16.1-19.1c-4.5-7-7.9-14.4-10.3-22.3c-2.4-7.9-3.6-16-3.6-24.3
		c0-11.9,2.3-23.1,6.8-33.8c4.5-10.7,10.8-19.9,18.6-27.8c7.9-7.9,17.2-14.1,28-18.8c10.8-4.6,22.3-7,34.8-6.9
		c12.2,0,23.7,2.3,34.5,7c10.8,4.6,20.1,10.9,28,18.8c7.9,7.9,14.1,17.2,18.8,27.8c4.6,10.7,7,21.9,6.9,33.8
		c0,8.5-1.3,16.7-3.9,24.6c-2.6,7.9-6.3,15.3-11,22.3c-4.7,7-10.4,13.3-17,19.1c-6.6,5.8-13.9,10.6-21.8,14.5l-16.1-24.5
		c5.7-2.8,11.1-6.2,16.1-10.2c5-4,9.3-8.4,12.9-13.2c3.6-4.8,6.4-10,8.5-15.4c2-5.5,3.1-11.1,3.1-16.8c0-7.8-1.6-15.2-4.7-22.3
		c-3.2-7-7.4-13.2-12.8-18.5c-5.4-5.3-11.6-9.5-18.8-12.7c-7.1-3.2-14.6-4.7-22.4-4.7c-8.2,0-15.8,1.6-22.8,4.7
		c-7.1,3.2-13.3,7.4-18.6,12.7c-5.4,5.3-9.6,11.5-12.7,18.5c-3.1,7.1-4.6,14.5-4.6,22.3C1676.7,179.8,1677.7,185.3,1679.6,190.8z"/>
	<path class="st0" d="M1927.6,231.9c7.2,0,14.3-1.5,21.3-4.6c7-3.1,13.2-7.2,18.8-12.5c5.6-5.3,10-11.4,13.4-18.2
		c3.3-6.9,5-14.2,5-22c0-7.8-1.6-15.2-4.7-22.3c-3.2-7-7.4-13.3-12.7-18.8c-5.3-5.5-11.5-9.8-18.5-12.9c-7-3.2-14.5-4.7-22.3-4.7
		l-73.2,0l0-28.9l72.9,0c12.2,0,23.6,2.3,34.2,6.8c10.6,4.5,19.8,10.8,27.8,18.8c8,8,14.2,17.2,18.8,27.8
		c4.5,10.6,6.8,21.9,6.8,33.9c0,12.1-2.5,23.3-7.5,33.8c-5,10.5-11.6,19.6-19.8,27.4c-8.2,7.8-17.5,13.9-28,18.4
		c-10.5,4.5-21.1,6.7-31.9,6.7l-73.4,0l0-28.7L1927.6,231.9z"/>
	<path class="st0" d="M2045.8,260.6l0-173.6l132.1,0l0,28.4l-102.4,0l0,116.8l102.4,0l0,28.4L2045.8,260.6z M2176.3,160.1l0,28.4
		l-56.6,0l0-28.4L2176.3,160.1z"/>
</g>
<g>
	<g>
		<path class="st1" d="M85.6,78.5c5.8,3.4,12.9,7.5,21.2,12.3c25.9,15.1,58.2,33.8,62,36.1l7.1,4.2l7.1-4.2
			c3.8-2.3,36.1-21,62.1-36.1c8.3-4.8,15.3-8.9,21.1-12.3c0.8,22.9,2,56.2,2,56.6c0.1,2.6,0.7,5.1,1.9,7.7
			c0.7,1.6,11.7,25.1,17.8,38.1c-16.9,14.1-58.4,48.6-63,52.4c-2,1.7-3.7,3.7-5.2,6.1c-3,5-9.9,16.5-16.9,28.2
			c-7.5,12.6-15.2,25.3-18,30.1c-0.3,0.5-0.9,1.3-1.6,2.1l-0.6,0.7c-1.1,1.4-3.9,4.8-6.9,8.5c-3-3.7-5.8-7.1-6.9-8.5l-0.6-0.7
			c-0.6-0.8-1.3-1.6-1.6-2.1c-2.8-4.7-10.4-17.4-17.9-30c-7-11.7-14-23.3-16.9-28.3c-1.4-2.4-3.1-4.4-5.1-6l-63-52.4
			c6.1-13,17-36.6,17.8-38.1c1.2-2.6,1.8-5.1,1.9-7.7c0.1-1.4,0.1-4.4,0.2-7c0.1-2.3,0.1-4.3,0.2-4.9C84.1,121.1,85,97,85.6,78.5
			 M279,55.2c-0.3,0-0.7,0.2-1.3,0.6c-2.6,1.5-94.9,55.1-101.7,59.1c-6.8-4.1-99.1-57.6-101.7-59.1c-0.6-0.3-1-0.6-1.3-0.6
			c-0.4,0-0.6,0.4-0.6,1.5c-0.1,1.8-2.2,62-2.4,66c-0.1,1.3-0.3,9.3-0.4,12c0,0.8-0.3,1.6-0.6,2.3c-0.7,1.5-21.7,46.5-21.8,46.7
			c-0.4,1-0.4,1.3,0.5,2.1l70.3,58.5c0.8,0.7,1.5,1.5,2.1,2.5c6.2,10.3,29.4,49.1,34.9,58.3c0.9,1.6,2.1,3,3.3,4.4
			c2.7,3.3,13.9,17.2,16.8,20.8c0,0,0.7,1,1,1c0.3,0,1-1,1-1c2.9-3.6,14.2-17.5,16.8-20.8c1.1-1.4,2.3-2.8,3.3-4.4
			c5.4-9.1,28.7-47.9,34.9-58.3c0.6-0.9,1.2-1.8,2.1-2.5c5.3-4.4,68.7-57.2,70.3-58.5c0.9-0.7,0.9-1,0.5-2.1
			c-0.1-0.2-21.1-45.2-21.8-46.7c-0.3-0.7-0.6-1.5-0.6-2.3c-0.1-2.7-2.7-76.2-2.8-77.9C279.6,55.6,279.4,55.2,279,55.2L279,55.2z"/>
	</g>
	<g>
		<path class="st2" d="M144.4,106.6c29,0,65.2,0,84.2,0c0,22.9,0.1,70.1,0,92.7c-5.2,0-12.4,0-22.7,0c-28.4,0-63.8,0-82.4,0
			c0-22.9,0-70.1,0-92.7C128.3,106.6,135,106.6,144.4,106.6 M144.4,92.6c-19.2,0-33.5,0-33.7,0c-0.8,0.1-1.1,0.3-1.2,1.1
			c-0.1,0.7,0,118.3,0,118.6c0.1,0.5,0.4,0.9,1,0.9c0.4,0,56.9,0.1,95.5,0.1c20,0,35.2,0,35.4,0c0.9-0.1,1.2-0.4,1.3-1.2
			c0-0.6,0-118.3-0.1-118.6c-0.1-0.5-0.4-0.8-0.9-0.8C241.2,92.6,183,92.6,144.4,92.6L144.4,92.6z"/>
	</g>
	<g>
		<path class="st3" d="M96.7,106.6c53.3,0,106.6,0,159.9,0c-26.8,46.4-53.7,92.9-80.5,139.4c-20.2-34.8-60.7-104.9-80.6-139.4
			L96.7,106.6 M96.7,92.6c-8.3,0-16.6,0-24.8,0c-0.1,0-0.3,0.1-0.4,0.1c0,0.2,0,0.3,0.1,0.4C72.3,94.7,175.4,273,176.1,274
			c34.9-60.3,69.6-120.6,104.4-180.8c0.1-0.1,0.1-0.3,0.1-0.4c-0.1-0.1-0.2-0.2-0.3-0.2C219.1,92.6,157.9,92.6,96.7,92.6L96.7,92.6z
			"/>
	</g>
	<g>
		<path class="st4" d="M176,16c42.1,0,81.7,16.4,111.5,46.2c29.8,29.8,46.2,69.4,46.2,111.5c0,42.1-16.4,81.7-46.2,111.5
			c-29.8,29.8-69.4,46.2-111.5,46.2c-42.1,0-81.7-16.4-111.5-46.2c-29.8-29.8-46.2-69.4-46.2-111.5c0-42.1,16.4-81.7,46.2-111.5
			C94.3,32.4,133.9,16,176,16 M176,2C81.2,2,4.4,78.8,4.4,173.6c0,94.8,76.8,171.6,171.6,171.6c94.8,0,171.6-76.8,171.6-171.6
			C347.6,78.8,270.8,2,176,2L176,2z"/>
	</g>
</g>
</svg>
