<?xml version="1.0" encoding="utf-8"?>
<!-- Generator: Adobe Illustrator 22.0.0, SVG Export Plug-In . SVG Version: 6.00 Build 0)  -->
<svg version="1.1" id="Layer_1" xmlns="http://www.w3.org/2000/svg" xmlns:xlink="http://www.w3.org/1999/xlink" x="0px" y="0px"
	 viewBox="0 0 1746 959" style="enable-background:new 0 0 1746 959;" xml:space="preserve">
<style type="text/css">
	.st0{fill:#121312;}
	.st1{fill:#EC1C24;}
	.st2{fill:#6D6E6E;}
	.st3{fill:#2A2B2A;}
	.st4{fill:#121112;}
</style>
<g>
	<path class="st0" d="M-2.9,781.4l106.8,0c6.1,0,12,1.4,17.5,4c5.6,2.7,10.4,6.4,14.6,11.3c4.2,4.8,7.5,10.5,10,17.1
		c2.5,6.6,3.8,13.7,3.8,21.3c0,6.9-1.2,13.4-3.6,19.6c-2.4,6.2-5.7,11.7-9.7,16.4c-4.1,4.7-8.9,8.5-14.5,11.4
		c-5.6,2.9-11.4,4.3-17.5,4.3l-32.8,0l0-28.4l29.8,0c3,0,5.6-0.7,7.8-2.2c2.2-1.5,4.1-3.4,5.6-5.7c1.5-2.3,2.5-4.9,3.2-7.7
		c0.6-2.8,1-5.5,1-8.1c0-2.8-0.4-5.6-1.3-8.5c-0.8-2.9-2-5.6-3.6-8.1c-1.6-2.5-3.5-4.5-5.8-6.1c-2.3-1.6-4.9-2.4-7.7-2.4l-73.7,0
		l0,145.2L-3,955L-2.9,781.4z"/>
	<path class="st0" d="M179.6,781.5l29.8,0l0,173.6l-29.8,0L179.6,781.5z"/>
	<path class="st0" d="M246.6,834.2c4.6-10.7,10.9-19.9,18.8-27.8c7.9-7.9,17.2-14.1,28-18.8c10.8-4.6,22.3-6.9,34.5-6.9
		c8.9,0,17.4,1.4,25.6,4.2c8.2,2.8,15.8,6.6,22.9,11.5c7.1,4.9,13.5,10.8,19.2,17.7c5.7,6.9,10.3,14.5,14,22.8L385.4,853
		c-2.8-6.1-6.2-11.8-10.3-17c-4.1-5.2-8.6-9.7-13.6-13.6c-5-3.9-10.3-6.9-16-9c-5.7-2.1-11.5-3.2-17.4-3.2c-8.2,0-15.8,1.6-23,4.7
		c-7.1,3.2-13.4,7.4-18.6,12.8c-5.3,5.4-9.5,11.6-12.7,18.6c-3.2,7.1-4.7,14.5-4.7,22.3c0,7.8,1.6,15.2,4.7,22.3
		c3.2,7.1,7.4,13.2,12.7,18.5c5.3,5.3,11.5,9.5,18.6,12.5c7.1,3.1,14.7,4.6,22.7,4.6c5.4,0,10.7-0.9,16-2.8
		c5.3-1.8,10.4-4.5,15.3-7.8c4.9-3.3,9.4-7.3,13.5-11.8c4.1-4.5,7.7-9.6,10.9-15.2l21.7,21.7c-8.9,13.9-19.9,24.9-33.1,33.1
		c-13.2,8.2-27.9,12.2-44.2,12.2c-12.2,0-23.7-2.3-34.5-7c-10.8-4.6-20.1-10.9-28-18.8c-7.9-7.9-14.1-17.2-18.8-27.8
		c-4.6-10.7-7-22-6.9-34.1C239.6,856.2,241.9,844.9,246.6,834.2z"/>
	<path class="st0" d="M589.1,781.5l0,28.4l-59.8,0l0,145.2l-30,0l0-145.2l-59,0l0-28.4L589.1,781.5z"/>
	<path class="st0" d="M653,781.5l0,94.6c0.7,7.1,2.9,13.6,6.4,19.8c3.5,6.1,7.9,11.5,13.2,16c5.3,4.5,11.3,8.1,17.9,10.7
		c6.7,2.6,13.6,3.9,20.9,3.9c7.2,0,14.2-1.3,20.9-3.9c6.7-2.6,12.6-6.2,17.8-10.7c5.2-4.5,9.5-9.9,12.8-16
		c3.3-6.1,5.5-12.7,6.4-19.8l0-94.6l30.3,0l0,87.4c0,12.1-2.3,23.4-7,33.9c-4.6,10.6-10.9,19.8-18.8,27.7
		c-7.9,7.9-17.2,14.1-28,18.6c-10.8,4.5-22.3,6.8-34.5,6.8c-12.2,0-23.7-2.3-34.5-6.8c-10.8-4.5-20.1-10.8-28.1-18.6
		c-8-7.9-14.3-17.1-18.9-27.7c-4.6-10.6-7-21.9-7-33.9l0-87.4L653,781.5z"/>
	<path class="st0" d="M883.1,882.7c-7.1,0-13.6-1.2-19.8-3.9c-6.1-2.7-11.5-6.4-16.1-11c-4.6-4.6-8.3-10-11-16.1
		c-2.7-6.1-4-12.6-4-19.5c0-7.6,1.2-14.5,3.6-20.7c2.4-6.2,5.7-11.5,9.7-16c4.1-4.5,8.9-7.9,14.3-10.3c5.5-2.4,11.4-3.6,17.7-3.6
		l104.6,0l0,28.4l-97.9,0c-7.4,0-12.9,2.1-16.4,6.4c-3.5,4.3-5.3,9.6-5.3,15.9c0,5.7,1.6,10.5,4.9,14.3c3.2,3.8,8.5,6.2,15.7,7.7
		l50.6,0c6.9,0,13.4,1.1,19.6,3.8c6.2,2.7,11.6,6.4,16.3,11c4.6,4.6,8.3,10,11.1,16.1c2.8,6.1,4.2,12.6,4.2,19.5
		c0,7.6-1.2,14.5-3.6,20.7c-2.4,6.2-5.7,11.5-9.9,16c-4.2,4.5-9,7.9-14.6,10.3c-5.6,2.4-11.4,3.6-17.5,3.6l-104.3,0l0-28.4l97.4,0
		c7.6,0,13.2-2.1,16.7-6.3s5.3-9.5,5.3-16c0-5.6-1.6-10.2-4.9-14c-3.2-3.8-8.5-6.3-15.7-7.8L883.1,882.7z"/>
	<path class="st0" d="M1020.8,834.3c4.6-10.7,10.9-19.9,18.8-27.8c7.9-7.9,17.2-14.1,28-18.8c10.8-4.6,22.3-6.9,34.5-6.9
		c8.9,0,17.4,1.4,25.6,4.2c8.2,2.8,15.8,6.6,22.9,11.5c7.1,4.9,13.5,10.8,19.2,17.7c5.7,6.9,10.3,14.5,14,22.8l-24.2,16.1
		c-2.8-6.1-6.2-11.8-10.3-17c-4.1-5.2-8.6-9.7-13.6-13.6c-5-3.9-10.3-6.9-16-9c-5.7-2.1-11.5-3.2-17.4-3.2c-8.2,0-15.8,1.6-22.9,4.7
		c-7.1,3.2-13.4,7.4-18.6,12.8c-5.3,5.4-9.5,11.6-12.7,18.6c-3.2,7.1-4.7,14.5-4.7,22.3c0,7.8,1.6,15.2,4.7,22.3
		c3.2,7.1,7.4,13.2,12.7,18.5c5.3,5.3,11.5,9.5,18.6,12.5c7.1,3.1,14.7,4.6,22.7,4.6c5.4,0,10.7-0.9,16-2.8
		c5.3-1.8,10.4-4.5,15.3-7.8c4.9-3.3,9.4-7.3,13.5-11.8c4.1-4.5,7.7-9.6,10.9-15.2l21.7,21.7c-8.9,13.9-19.9,24.9-33.1,33.1
		c-13.2,8.2-27.9,12.2-44.2,12.2c-12.2,0-23.7-2.3-34.5-7c-10.8-4.6-20.1-10.9-28-18.8c-7.9-7.9-14.1-17.2-18.8-27.8
		c-4.6-10.7-7-22-6.9-34.1C1013.8,856.3,1016.2,845,1020.8,834.3z"/>
	<path class="st0" d="M1244.6,885.5c1.9,5.5,4.7,10.7,8.2,15.7c3.5,5,7.7,9.6,12.7,13.6c4.9,4.1,10.4,7.5,16.6,10.3l-18.9,23.9
		c-7.8-4.1-14.8-9-21.1-14.8c-6.3-5.7-11.7-12.1-16.1-19.1c-4.5-7-7.9-14.4-10.3-22.3c-2.4-7.9-3.6-16-3.6-24.3
		c0-11.9,2.3-23.1,6.8-33.8c4.5-10.7,10.8-19.9,18.6-27.8c7.9-7.9,17.2-14.1,28-18.8c10.8-4.6,22.3-7,34.8-6.9
		c12.2,0,23.7,2.3,34.5,7c10.8,4.6,20.1,10.9,28,18.8c7.9,7.9,14.1,17.2,18.8,27.8c4.6,10.7,7,21.9,6.9,33.8
		c0,8.5-1.3,16.7-3.9,24.6c-2.6,7.9-6.3,15.3-11,22.3c-4.7,7-10.4,13.3-17,19.1c-6.6,5.8-13.9,10.6-21.8,14.5l-16.1-24.5
		c5.7-2.8,11.1-6.2,16.1-10.2c5-4,9.3-8.4,12.9-13.2c3.6-4.8,6.4-10,8.5-15.4c2-5.5,3.1-11.1,3.1-16.8c0-7.8-1.6-15.2-4.7-22.3
		c-3.2-7-7.4-13.2-12.8-18.5c-5.4-5.3-11.6-9.5-18.8-12.7c-7.1-3.2-14.6-4.7-22.4-4.7c-8.2,0-15.8,1.6-22.8,4.7
		c-7.1,3.2-13.3,7.4-18.6,12.7c-5.4,5.3-9.6,11.5-12.7,18.5c-3.1,7.1-4.6,14.5-4.6,22.3C1241.7,874.6,1242.7,880.1,1244.6,885.5z"/>
	<path class="st0" d="M1492.6,926.6c7.2,0,14.3-1.5,21.3-4.6c7-3.1,13.2-7.2,18.8-12.5c5.6-5.3,10-11.4,13.4-18.2
		c3.3-6.9,5-14.2,5-22c0-7.8-1.6-15.2-4.7-22.3c-3.2-7-7.4-13.3-12.7-18.8c-5.3-5.5-11.5-9.8-18.5-12.9c-7-3.2-14.5-4.7-22.3-4.7
		l-73.2,0l0-28.9l72.9,0c12.2,0,23.6,2.3,34.2,6.8c10.6,4.5,19.8,10.8,27.8,18.8c8,8,14.2,17.2,18.8,27.8
		c4.5,10.6,6.8,21.9,6.8,33.9c0,12.1-2.5,23.3-7.5,33.8c-5,10.5-11.6,19.6-19.8,27.4c-8.2,7.8-17.5,13.9-28,18.4
		c-10.5,4.5-21.1,6.7-31.9,6.7l-73.4,0l0-28.7L1492.6,926.6z"/>
	<path class="st0" d="M1610.8,955.3l0-173.6l132.1,0l0,28.4l-102.4,0l0,116.8l102.4,0l0,28.4L1610.8,955.3z M1741.3,854.9l0,28.4
		l-56.6,0l0-28.4L1741.3,854.9z"/>
</g>
<g>
	<g>
		<path class="st1" d="M723.7,159.2c12,7,26.9,15.6,44.5,25.9c52.2,30.4,117.3,68.1,125,72.7l13.8,8.2l13.8-8.2
			c7.7-4.6,72.8-42.4,125.2-72.8c17.5-10.2,32.3-18.8,44.3-25.7c1.6,46.3,4.1,115.2,4.1,116.1c0.2,5.1,1.4,10.1,3.8,15.1
			c1.5,3.2,24.1,51.7,36.3,77.7c-33.6,28-118.3,98.5-127.7,106.2c-4,3.3-7.3,7.2-10.1,11.9c-6,10-20.3,33.8-34.1,56.9
			c-15,25.1-30.5,51-36.2,60.5c-0.6,1-2,2.7-3.3,4.3c-0.4,0.5-0.8,1-1.2,1.5c-2.4,3-8.5,10.5-14.9,18.4
			c-6.4-7.9-12.4-15.3-14.9-18.4c-0.4-0.5-0.8-1-1.2-1.5c-1.3-1.6-2.7-3.3-3.3-4.3c-5.7-9.5-21.2-35.4-36.1-60.4
			c-13.8-23.1-28.2-47-34.2-57c-2.8-4.7-6.1-8.6-10.1-11.9L679.6,368.1c12.1-26,34.7-74.5,36.2-77.7c2.4-5,3.6-10,3.8-15.1
			c0.1-2.9,0.3-8.9,0.4-14.2c0.1-4.3,0.3-8.7,0.3-9.9C720.5,246.9,722.4,196.7,723.7,159.2 M1114.5,114.2c-0.6,0-1.4,0.4-2.6,1.1
			c-5.2,3.1-191.2,111-204.9,119.2c-13.8-8.2-199.7-116.1-204.9-119.2c-1.2-0.7-2-1.1-2.6-1.1c-0.9,0-1.2,0.9-1.3,3.1
			c-0.1,3.6-4.5,125-4.8,133c-0.1,2.6-0.6,18.7-0.8,24.1c-0.1,1.6-0.6,3.2-1.3,4.6c-1.4,3.1-43.7,93.7-43.9,94.2
			c-0.9,2.1-0.8,2.7,1,4.2L790,495.2c1.7,1.4,3,3.1,4.2,5c12.4,20.8,59.3,99,70.3,117.4c1.9,3.2,4.3,6,6.6,8.9
			c5.4,6.7,28,34.6,34,41.9c0,0,1.4,2,2,2c0.6,0,2-2,2-2c5.9-7.3,28.6-35.2,34-41.9c2.3-2.9,4.7-5.7,6.6-8.9
			c11-18.4,57.9-96.6,70.3-117.4c1.1-1.9,2.4-3.6,4.2-5c10.7-8.9,138.5-115.2,141.6-117.8c1.7-1.5,1.8-2.1,1-4.2
			c-0.2-0.4-42.4-91.1-43.9-94.2c-0.7-1.5-1.2-3-1.3-4.6c-0.2-5.4-5.5-153.5-5.6-157.1C1115.7,115.1,1115.4,114.2,1114.5,114.2
			L1114.5,114.2z"/>
	</g>
	<g>
		<path class="st2" d="M843.2,216.6c59.2,0,133,0,170.9,0.1c0.1,46,0.1,143.8,0.1,189.2c-10.5,0-25.5,0-47,0
			c-57.9,0-130.1,0-167.3-0.1c-0.1-46-0.1-143.7-0.1-189.2C809.7,216.6,823.6,216.6,843.2,216.6 M843.2,189.6c-38.6,0-67.6,0-68,0
			c-1.7,0.1-2.2,0.6-2.4,2.3c-0.1,1.4,0,238.4,0.1,239c0.2,1.1,0.8,1.7,1.9,1.8c0.9,0.1,114.5,0.1,192.3,0.1c40.3,0,70.9,0,71.4,0
			c1.8-0.1,2.4-0.7,2.5-2.5c0.1-1.2,0-238.4-0.1-239c-0.2-1-0.8-1.6-1.8-1.6C1038.4,189.7,921.2,189.6,843.2,189.6L843.2,189.6z"/>
	</g>
	<g>
		<path class="st3" d="M747.2,216.6c108.1,0,216.2,0,324.3,0c-54.8,94.8-109.5,189.6-164.4,284.6c-40.7-70.1-124.5-215-164.6-284.6
			L747.2,216.6 M747.2,189.6c-16.7,0-33.4,0-50.1,0c-0.3,0-0.5,0.1-0.8,0.2c0,0.3,0,0.6,0.1,0.9c1.5,3.1,209.3,362.5,210.8,364.4
			c70.2-121.6,140.3-243,210.4-364.3c0.1-0.2,0.1-0.5,0.2-0.8c-0.2-0.1-0.4-0.3-0.5-0.3C993.9,189.7,870.5,189.6,747.2,189.6
			L747.2,189.6z"/>
	</g>
	<g>
		<path class="st4" d="M907,34c43.1,0,84.8,8.4,124.1,25c38,16.1,72.1,39.1,101.4,68.4c29.3,29.3,52.3,63.4,68.4,101.4
			c16.6,39.3,25,81.1,25,124.1c0,43.1-8.4,84.8-25,124.1c-16.1,38-39.1,72.1-68.4,101.4c-29.3,29.3-63.4,52.3-101.4,68.4
			c-39.3,16.6-81.1,25-124.1,25c-43.1,0-84.8-8.4-124.1-25c-38-16.1-72.1-39.1-101.4-68.4c-29.3-29.3-52.3-63.4-68.4-101.4
			c-16.6-39.3-25-81.1-25-124.1c0-43.1,8.4-84.8,25-124.1c16.1-38,39.1-72.1,68.4-101.4c29.3-29.3,63.4-52.3,101.4-68.4
			C822.2,42.4,863.9,34,907,34 M907,7C716,7,561.1,161.9,561.1,352.9c0,191,154.9,345.9,345.9,345.9c191,0,345.9-154.9,345.9-345.9
			C1252.9,161.9,1098,7,907,7L907,7z"/>
	</g>
</g>
</svg>
